<svg height="512pt" viewBox="0 0 512 512" width="512pt" xmlns="http://www.w3.org/2000/svg"><path d="m512 256c0 141.386719-114.613281 256-256 256s-256-114.613281-256-256 114.613281-256 256-256 256 114.613281 256 256zm0 0" fill="#ffe955"/><path d="m512 256c0 26.050781-3.890625 51.191406-11.128906 74.871094-32.011719 104.847656-129.542969 181.128906-244.871094 181.128906-104.558594 0-194.488281-62.699219-234.230469-152.550781-14-31.628907-21.769531-66.628907-21.769531-103.449219 0-46.21875 12.25-89.570312 33.679688-127 44.121093 77.070312 127.160156 129 222.320312 129s178.210938-51.929688 222.320312-129c21.429688 37.429688 33.679688 80.78125 33.679688 127zm0 0" fill="#ffd112"/><path d="m203.46875 411.703125h105.0625v78.097656h-105.0625zm0 0" fill="#323b5a"/><path d="m354.738281 492.261719c-30.386719 12.71875-63.75 19.738281-98.738281 19.738281-35 0-68.359375-7.03125-98.738281-19.738281 5.410156-6.902344 13.828125-11.332031 23.277343-11.332031h150.921876c9.449218 0 17.867187 4.429687 23.277343 11.332031zm0 0" fill="#474f6f"/><path d="m441.929688 189.890625v198.945313c0 13.308593-10.800782 24.109374-24.109376 24.109374h-323.640624c-13.308594 0-24.109376-10.800781-24.109376-24.109374v-198.945313c0-13.320313 10.800782-24.113281 24.109376-24.113281h323.640624c13.308594 0 24.109376 10.789062 24.109376 24.113281zm0 0" fill="#474f6f"/><path d="m441.929688 189.890625v198.945313c0 13.308593-10.800782 24.109374-24.109376 24.109374h-161.820312v-247.167968h161.820312c13.308594 0 24.109376 10.789062 24.109376 24.113281zm0 0" fill="#535e89"/><path d="m424.308594 203.230469v175.03125c0 7.886719-6.398438 14.289062-14.289063 14.289062h-308.039062c-7.890625 0-14.289063-6.402343-14.289063-14.289062v-175.03125c0-7.890625 6.398438-14.289063 14.289063-14.289063h308.039062c7.890625 0 14.289063 6.398438 14.289063 14.289063zm0 0" fill="#d0f6ff"/><path d="m424.308594 203.230469v175.03125c0 7.886719-6.398438 14.289062-14.289063 14.289062h-154.417969v-203.609375h154.417969c7.890625 0 14.289063 6.398438 14.289063 14.289063zm0 0" fill="#fff"/><g fill="#323b5a"><path d="m281.566406 255.175781c-.679687 0-1.125.207031-1.125.757813 0 2.300781 9.492188.863281 9.492188 7.503906 0 4.078125-3.582032 5.882812-7.714844 5.882812-2.890625 0-6.078125-.882812-8.460938-2.425781-.417968-.269531-.5625-.8125-.34375-1.257812l1.359376-2.75c.261718-.53125.925781-.703125 1.421874-.378907 1.894532 1.25 4.492188 2.183594 6.078126 2.183594.886718 0 1.464843-.289062 1.464843-.941406 0-2.378906-9.492187-.808594-9.492187-7.242188 0-3.660156 3.085937-5.960937 7.84375-5.960937 2.542968 0 5.164062.664063 7.164062 1.707031.464844.238282.644532.8125.417969 1.285156l-1.367187 2.867188c-.234376.488281-.820313.699219-1.304688.464844-1.792969-.878906-4.070312-1.695313-5.433594-1.695313zm0 0"/><path d="m297.566406 251.785156v16.371094c0 .539062-.4375.980469-.980468.980469h-4.105469c-.542969 0-.980469-.441407-.980469-.980469v-16.371094c0-.539062.4375-.976562.980469-.976562h4.105469c.542968 0 .980468.4375.980468.976562zm0 0"/><path d="m313.003906 259.488281h3.242188c.542968 0 .980468.4375.980468.980469v6.027344c0 .355468-.1875.679687-.496093.855468-2.058594 1.199219-5.117188 2.042969-7.53125 2.042969-5.75 0-9.933594-3.972656-9.933594-9.410156 0-5.414063 4.339844-9.359375 10.328125-9.359375 2.464844 0 5.125.820312 7.066406 2.160156.480469.328125.582032.992188.214844 1.4375l-2.160156 2.625c-.324219.390625-.902344.480469-1.316406.179688-1.152344-.839844-2.582032-1.355469-3.832032-1.355469-2.351562 0-4.078125 1.828125-4.078125 4.3125 0 2.535156 1.753907 4.367187 4.132813 4.367187.472656 0 1.09375-.136718 1.753906-.359374.390625-.132813.652344-.507813.652344-.921876v-2.605468c-.003906-.539063.4375-.976563.976562-.976563zm0 0"/><path d="m324.839844 251.191406 5.195312 6.746094c.570313.742188 1.753906.339844 1.753906-.59375v-5.558594c0-.539062.4375-.976562.980469-.976562h3.53125c.539063 0 .976563.4375.976563.976562v16.371094c0 .539062-.4375.980469-.976563.980469h-3.613281c-.300781 0-.589844-.144531-.773438-.382813l-5.167968-6.703125c-.570313-.738281-1.753906-.335937-1.753906.597657v5.507812c0 .539062-.4375.980469-.980469.980469h-3.558594c-.539063 0-.976563-.441407-.976563-.980469v-16.371094c0-.539062.4375-.976562.976563-.976562h3.613281c.300782 0 .589844.140625.773438.382812zm0 0"/><path d="m356.367188 264.351562c1.488281 0 2.640624-1.152343 2.640624-2.980468v-9.582032c0-.542968.4375-.980468.976563-.980468h4.109375c.539062 0 .976562.4375.976562.980468v9.582032c0 4.863281-3.421874 8.027344-8.730468 8.027344-5.335938 0-8.863282-3.164063-8.863282-8.027344v-9.582032c0-.542968.4375-.980468.976563-.980468h4.109375c.539062 0 .976562.4375.976562.980468v9.582032c.003907 1.804687 1.308594 2.980468 2.828126 2.980468zm0 0"/><path d="m383.53125 257.371094c0 4.445312-2.746094 7.007812-7.503906 7.007812h-1.558594c-.539062 0-.980469.4375-.980469.976563v2.800781c0 .539062-.4375.980469-.976562.980469h-4.109375c-.539063 0-.976563-.441407-.976563-.980469v-16.371094c0-.539062.4375-.976562.976563-.976562h7.625c4.757812 0 7.503906 2.378906 7.503906 6.5625zm-5.753906.183594c0-1.359376-.757813-2.144532-2.066406-2.144532h-1.242188c-.539062 0-.980469.4375-.980469.980469v2.40625c0 .542969.441407.980469.980469.980469h1.242188c1.308593 0 2.066406-.8125 2.066406-2.222656zm0 0"/><path d="m238.179688 276.921875h148.664062v21.769531h-148.664062zm0 0"/><path d="m238.179688 318.597656h148.664062v21.769532h-148.664062zm0 0"/></g><path d="m190.859375 339.410156h-65.703125v-84.78125h48.425781l17.277344 16.199219zm0 0" fill="#f8c706"/><path d="m173.582031 254.628906v16.097656h17.277344zm0 0" fill="#ed771b"/><path d="m136.878906 279.714844h42.261719v6.179687h-42.261719zm0 0" fill="#334f5b"/><path d="m136.878906 291.457031h42.261719v6.179688h-42.261719zm0 0" fill="#334f5b"/><path d="m136.878906 303.199219h42.261719v6.179687h-42.261719zm0 0" fill="#334f5b"/><path d="m136.878906 314.941406h42.261719v6.179688h-42.261719zm0 0" fill="#334f5b"/><path d="m224.320312 328.183594-5.222656 8.667968-2.148437 3.5625c-.769531 1.273438-2.613281 1.273438-3.382813 0l-2.148437-3.5625-5.226563-8.667968v-7.699219l9.066406-1.652344 8.605469 1.238281zm0 0" fill="#ffa87a"/><path d="m224.316406 267.972656h-18.117187c.1875-5.683594 4.167969-10.21875 9.058593-10.21875 2.503907 0 4.769532 1.1875 6.410157 3.113282 1.5625 1.832031 2.558593 4.335937 2.648437 7.105468zm0 0" fill="#f75454"/><path d="m212.621094 267.972656v57.925782c-.535156.613281-.855469 1.410156-.855469 2.285156 0-1.539063-1.246094-2.785156-2.789063-2.785156-1.539062 0-2.785156 1.246093-2.785156 2.785156v-59.792969c0-.140625 0-.28125.007813-.417969zm0 0" fill="#0066e8"/><path d="m224.324219 268.390625v59.792969h-.003907c0-1.539063-1.246093-2.785156-2.789062-2.785156-1.539062 0-2.785156 1.246093-2.785156 2.785156 0-.875-.320313-1.671875-.855469-2.289063v-57.925781h6.421875c.007812.140625.011719.28125.011719.421875zm0 0" fill="#65b2ff"/><path d="m218.746094 267.972656v60.210938c0-.875-.320313-1.671875-.855469-2.285156-.640625-.738282-1.585937-1.203126-2.636719-1.203126-1.050781 0-1.996094.464844-2.632812 1.203126-.535156.613281-.855469 1.410156-.855469 2.285156v-60.210938zm0 0" fill="#178cda"/><path d="m224.324219 268.390625v3.050781h-18.132813v-3.050781c0-.140625 0-.28125.007813-.421875h18.117187c.003906.140625.007813.28125.007813.421875zm0 0" fill="#393845"/><path d="m219.097656 336.851562-2.148437 3.5625c-.769531 1.273438-2.613281 1.273438-3.382813 0l-2.148437-3.5625c1.105469-.707031 2.425781-1.117187 3.839843-1.117187 1.410157 0 2.730469.410156 3.839844 1.117187zm0 0" fill="#323b5a"/></svg>